<svg xmlns="http://www.w3.org/2000/svg" xmlns:xlink="http://www.w3.org/1999/xlink" width="500" zoomAndPan="magnify" viewBox="0 0 375 374.999991" height="500" preserveAspectRatio="xMidYMid meet" version="1.0"><path fill="#3d7e8c" d="M 294.644531 80.609375 C 233.433594 19.410156 135.480469 18.140625 75.84375 77.773438 C 23.46875 130.152344 18.082031 212.089844 59.007812 272.71875 L 31.09375 348.179688 L 104.03125 317.246094 C 164.519531 357.082031 245.539062 351.351562 297.480469 299.410156 C 357.117188 239.773438 355.847656 141.820312 294.644531 80.609375 Z M 294.644531 80.609375 " fill-opacity="1" fill-rule="nonzero"/><path fill="#d7deed" d="M 260.519531 224.152344 C 274.847656 232.78125 277.648438 232.140625 277.648438 240.882812 C 277.648438 248.871094 258.960938 274.742188 237.816406 274.761719 C 206.855469 274.742188 173.035156 255.695312 146.484375 229.863281 C 120.652344 203.3125 101.605469 169.492188 101.589844 138.53125 C 101.589844 117.371094 127.476562 98.699219 135.464844 98.699219 C 144.207031 98.699219 143.566406 101.496094 152.195312 115.828125 C 157.003906 123.800781 168.40625 138.789062 166.246094 144.382812 C 163.152344 152.347656 144.410156 161.710938 144.410156 167.417969 C 144.425781 186.441406 189.90625 231.921875 208.929688 231.9375 C 214.621094 231.921875 223.984375 213.171875 231.964844 210.101562 C 237.558594 207.941406 252.546875 219.34375 260.519531 224.152344 Z M 260.519531 224.152344 " fill-opacity="1" fill-rule="nonzero"/></svg>